/* XPM */
static char * elexis48n_xpm[] = {
"48 48 60 1",
" 	c #E3E3F8",
".	c #E0E0F5",
"+	c #DADAF1",
"@	c #D9D9EF",
"#	c #D1D1E9",
"$	c #C0C0C0",
"%	c #74C0FF",
"&	c #78C2FF",
"*	c #80C5FF",
"=	c #85C8FF",
"-	c #88C9FF",
";	c #90CCFF",
">	c #99D0FF",
",	c #A2D4FF",
"'	c #ABD8FF",
")	c #69BBFF",
"!	c #70BEFF",
"~	c #58B4FF",
"{	c #61B8FF",
"]	c #C9C9E2",
"^	c #50B0FF",
"/	c #40A9FF",
"(	c #48ACFF",
"_	c #60B7FF",
":	c #38A5FF",
"<	c #3DA8FF",
"[	c #4FB0FF",
"}	c #C6C6E1",
"|	c #2BA0FF",
"1	c #30A2FF",
"2	c #FF0000",
"3	c #C1C1DC",
"4	c #219BFF",
"5	c #289EFF",
"6	c #1294FF",
"7	c #1998FF",
"8	c #BDBDD9",
"9	c #0991FF",
"0	c #BABAD7",
"a	c #CFCFE8",
"b	c #B7B7D5",
"c	c #CDCDCE",
"d	c #EDEDEE",
"e	c #D9D9DB",
"f	c #B9B9CB",
"g	c #565681",
"h	c #ACACCB",
"i	c #8686A4",
"j	c #D4D4E7",
"k	c #484861",
"l	c #464660",
"m	c #45455F",
"n	c #7D7DA5",
"o	c #A0A0C8",
"p	c #8C8CB4",
"q	c #6E6EA5",
"r	c #69699B",
"s	c #636390",
"t	c #5A5A82",
"u	c #545479",
"            ............++++++++++++@@@######$$$",
"            ............++++++++++++@@@######$$$",
"            ............++++++++++++@@@######$$$",
"   %%%&&&&&&***===---;;;;;;>>>>>>,,,,,,'''###$$$",
"   %%%&&&&&&***===---;;;;;;>>>>>>,,,,,,'''###$$$",
"   %%%&&&&&&***===---;;;;;;>>>>>>,,,,,,'''###$$$",
"   ))))))!!!%%%&&&******------;;;;;;>>>>>>###$$$",
"   ))))))!!!%%%&&&******------;;;;;;>>>>>>###$$$",
"   ))))))!!!%%%&&&******------;;;;;;>>>>>>###$$$",
"   ~~~{{{{{{))))))%%%&&&&&&***===------;;;]]]$$$",
"   ~~~{{{{{{))))))%%%&&&&&&***===------;;;]]]$$$",
"   ~~~{{{{{{))))))%%%&&&&&&***===------;;;]]]$$$",
"...^^^^^^~~~~~~{{{{{{)))!!!%%%&&&&&&***===]]]$$$",
"...^^^^^^~~~~~~{{{{{{)))!!!%%%&&&&&&***===]]]$$$",
"...^^^^^^~~~~~~{{{{{{)))!!!%%%&&&&&&***===]]]$$$",
"...///((((((^^^^^^~~~___{{{))))))!!!%%%&&&]]]$$$",
"...///((((((^^^^^^~~~___{{{))))))!!!%%%&&&]]]$$$",
"...///((((((^^^^^^~~~___{{{))))))!!!%%%&&&]]]$$$",
"...:::<<<//////((([[[^^^~~~~~~{{{{{{))))))}}}$$$",
"...:::<<<//////((([[[^^^~~~~~~{{{{{{))))))}}}$$$",
"...:::<<<//////((([[[^^^~~~~~~{{{{{{))))))}}}$$$",
"+++|||111111:::<<<///((((((^^^^^^222~~~{{{333$$$",
"+++|||111111:::<<<///((((((^^^^^^222~~~{{{333$$$",
"+++|||111111:::<<<///((((((^^^^^^222~~~{{{333$$$",
"+++444444555|||111111::://////222222222^^^333$$$",
"+++444444555|||111111::://////222222222^^^333$$$",
"+++444444555|||111111::://////222222222^^^333$$$",
"+++666777777444444||||||111:::<<<222///(((888$$$",
"+++666777777444444||||||111:::<<<222///(((888$$$",
"+++666777777444444||||||111:::<<<222///(((888$$$",
"@@@999999666666777777444555|||111111:::<<<000$$$",
"@@@999999666666777777444555|||111111:::<<<000$$$",
"@@@999999666666777777444555|||111111:::<<<000$$$",
"############aaa]]]]]]]]]}}}333333888888000bbb$$$",
"############aaa]]]]]]]]]}}}333333888888000bbb$$$",
"############aaa]]]]]]]]]}}}333333888888000bbb$$$",
"$$$$$$$$$cccdddeeefffffffffggghhhiii$$$$$$$$$$$$",
"$$$$$$$$$cccdddeeefffffffffggghhhiii$$$$$$$$$$$$",
"$$$$$$$$$cccdddeeefffffffffggghhhiii$$$$$$$$$$$$",
"$$$$$$$$$333jjjkkkkkklllmmmnnnoooppp$$$$$$$$$$$$",
"$$$$$$$$$333jjjkkkkkklllmmmnnnoooppp$$$$$$$$$$$$",
"$$$$$$$$$333jjjkkkkkklllmmmnnnoooppp$$$$$$$$$$$$",
"$$$$$$$$$qqqrrrrrrssstttttttttuuulll$$$$$$$$$$$$",
"$$$$$$$$$qqqrrrrrrssstttttttttuuulll$$$$$$$$$$$$",
"$$$$$$$$$qqqrrrrrrssstttttttttuuulll$$$$$$$$$$$$",
"$$$$$$$$$$$$$$$$$$$$$$$$$$$$$$$$$$$$$$$$$$$$$$$$",
"$$$$$$$$$$$$$$$$$$$$$$$$$$$$$$$$$$$$$$$$$$$$$$$$",
"$$$$$$$$$$$$$$$$$$$$$$$$$$$$$$$$$$$$$$$$$$$$$$$$"};
