<?xml version="1.0" encoding="UTF-8" standalone="no"?>
<!DOCTYPE svg PUBLIC "-//W3C//DTD SVG 1.1//EN"
 "http://www.w3.org/Graphics/SVG/1.1/DTD/svg11.dtd">
<!-- Generated by graphviz version 2.26.3 (20100126.1600)
 -->
<!-- Title: Elexis_Release Pages: 1 -->
<svg width="756pt" height="838pt"
 viewBox="0.00 0.00 756.00 838.00" xmlns="http://www.w3.org/2000/svg" xmlns:xlink="http://www.w3.org/1999/xlink">
<g id="graph1" class="graph" transform="scale(1 1) rotate(0) translate(4 834)">
<title>Elexis_Release</title>
<polygon fill="white" stroke="white" points="-4,5 -4,-834 753,-834 753,5 -4,5"/>
<!-- top -->
<g id="node1" class="node"><title>top</title>
<polygon fill="cornsilk" stroke="cornsilk" points="671,-829.5 77,-829.5 77,-792.5 671,-792.5 671,-829.5"/>
<text text-anchor="middle" x="374" y="-803.9" font-family="Times Roman,serif" font-size="24.00">Übersicht, wie eine Elexis 3 Version erstellt wird</text>
</g>
<!-- snapshot -->
<g id="node4" class="node"><title>snapshot</title>
<polyline fill="none" stroke="black" stroke-width="2" points="243,-708 317,-708 "/>
<path fill="none" stroke="black" stroke-width="2" d="M317,-708C323,-708 329,-714 329,-720"/>
<polyline fill="none" stroke="black" stroke-width="2" points="329,-720 329,-732 "/>
<path fill="none" stroke="black" stroke-width="2" d="M329,-732C329,-738 323,-744 317,-744"/>
<polyline fill="none" stroke="black" stroke-width="2" points="317,-744 243,-744 "/>
<path fill="none" stroke="black" stroke-width="2" d="M243,-744C237,-744 231,-738 231,-732"/>
<polyline fill="none" stroke="black" stroke-width="2" points="231,-732 231,-720 "/>
<path fill="none" stroke="black" stroke-width="2" d="M231,-720C231,-714 237,-708 243,-708"/>
<text text-anchor="middle" x="280" y="-720.8" font-family="Times Roman,serif" font-size="18.00">Snapshot</text>
</g>
<!-- top&#45;&gt;snapshot -->
<!-- release -->
<g id="node6" class="node"><title>release</title>
<polygon fill="gold" stroke="gold" points="468,-756 384,-726 468,-696 552,-726 468,-756"/>
<text text-anchor="middle" x="468" y="-720.8" font-family="Times Roman,serif" font-size="18.00">Release</text>
</g>
<!-- top&#45;&gt;release -->
<!-- repo_properties -->
<g id="node2" class="node"><title>repo_properties</title>
<polygon fill="none" stroke="black" points="497,-547.5 251,-547.5 251,-454.5 497,-454.5 497,-547.5"/>
<text text-anchor="middle" x="374" y="-530.9" font-family="Times Roman,serif" font-size="14.00">Aus *.application/repo.properties.</text>
<text text-anchor="middle" x="374" y="-513.9" font-family="Times Roman,serif" font-size="14.00">füllen Maven/Tycho Version,</text>
<text text-anchor="middle" x="374" y="-496.9" font-family="Times Roman,serif" font-size="14.00">Projektnamen, Qualifier,</text>
<text text-anchor="middle" x="374" y="-479.9" font-family="Times Roman,serif" font-size="14.00">Variante=[release|snapshot]&#45;&gt;</text>
<text text-anchor="middle" x="374" y="-462.9" font-family="Times Roman,serif" font-size="14.00">in *.p2site/repo.properties ab</text>
</g>
<!-- install_build_snapshot -->
<g id="node14" class="node"><title>install_build_snapshot</title>
<polygon fill="none" stroke="black" points="362,-418 20,-418 20,-376 368,-376 368,-412 362,-418"/>
<polyline fill="none" stroke="black" points="362,-418 362,-412 "/>
<polyline fill="none" stroke="black" points="368,-412 362,-412 "/>
<text text-anchor="start" x="27.5" y="-401.4" font-family="Times Roman,serif" font-size="14.00">wget install_build.rb &amp;&amp;\</text>
<text text-anchor="start" x="27.5" y="-384.4" font-family="Times Roman,serif" font-size="14.00">ROOT=/to/p2repo/snapshot ruby install_build.rb</text>
</g>
<!-- repo_properties&#45;&gt;install_build_snapshot -->
<g id="edge14" class="edge"><title>repo_properties&#45;&gt;install_build_snapshot</title>
<path fill="none" stroke="black" stroke-dasharray="1,5" d="M293.477,-454.475C274.995,-443.797 255.975,-432.808 239.58,-423.335"/>
<polygon fill="black" stroke="black" points="241.171,-420.212 230.761,-418.24 237.669,-426.273 241.171,-420.212"/>
</g>
<!-- install_build_release -->
<g id="node16" class="node"><title>install_build_release</title>
<polygon fill="gold" stroke="gold" points="716,-418 386,-418 386,-376 722,-376 722,-412 716,-418"/>
<polyline fill="none" stroke="gold" points="716,-418 716,-412 "/>
<polyline fill="none" stroke="gold" points="722,-412 716,-412 "/>
<text text-anchor="start" x="394" y="-401.4" font-family="Times Roman,serif" font-size="14.00">wget install_build.rb &amp;&amp;\</text>
<text text-anchor="start" x="394" y="-384.4" font-family="Times Roman,serif" font-size="14.00">ROOT=/to/p2repo/release ruby install_build.rb</text>
</g>
<!-- repo_properties&#45;&gt;install_build_release -->
<g id="edge16" class="edge"><title>repo_properties&#45;&gt;install_build_release</title>
<path fill="none" stroke="black" stroke-dasharray="1,5" d="M454.523,-454.475C473.005,-443.797 492.025,-432.808 508.42,-423.335"/>
<polygon fill="black" stroke="black" points="510.331,-426.273 517.239,-418.24 506.829,-420.212 510.331,-426.273"/>
</g>
<!-- jenkins_snapshot -->
<g id="node8" class="node"><title>jenkins_snapshot</title>
<polygon fill="none" stroke="black" points="360,-660 176,-660 176,-664 164,-664 164,-584 360,-584 360,-660"/>
<polyline fill="none" stroke="black" points="164,-660 176,-660 "/>
<text text-anchor="middle" x="262" y="-643.4" font-family="Times Roman,serif" font-size="14.00">Jenkins&#45;CI</text>
<text text-anchor="start" x="172" y="-626.4" font-family="Times Roman,serif" font-size="14.00">Konvention für Namen ist</text>
<text text-anchor="start" x="172" y="-609.4" font-family="Times Roman,serif" font-size="14.00">Elexis&#45;major.minor&#45;Project</text>
<text text-anchor="middle" x="262" y="-592.4" font-family="Times Roman,serif" font-size="14.00">zB. Elexis&#45;3.0&#45;Base</text>
</g>
<!-- snapshot&#45;&gt;jenkins_snapshot -->
<g id="edge6" class="edge"><title>snapshot&#45;&gt;jenkins_snapshot</title>
<path fill="none" stroke="black" stroke-dasharray="1,5" d="M276.865,-707.885C275.051,-697.404 272.674,-683.67 270.354,-670.268"/>
<polygon fill="black" stroke="black" points="273.756,-669.401 268.602,-660.144 266.859,-670.595 273.756,-669.401"/>
</g>
<!-- jenkins_release -->
<g id="node10" class="node"><title>jenkins_release</title>
<polygon fill="gold" stroke="gold" points="596,-660 390,-660 390,-664 378,-664 378,-584 596,-584 596,-660"/>
<polyline fill="none" stroke="gold" points="378,-660 390,-660 "/>
<text text-anchor="middle" x="487" y="-643.4" font-family="Times Roman,serif" font-size="14.00">Jenkins&#45;CI</text>
<text text-anchor="middle" x="487" y="-626.4" font-family="Times Roman,serif" font-size="14.00">Separate Projekte</text>
<text text-anchor="middle" x="487" y="-609.4" font-family="Times Roman,serif" font-size="14.00">z.B. Elexis&#45;3.0&#45;Base&#45;Releases</text>
<text text-anchor="middle" x="487" y="-592.4" font-family="Times Roman,serif" font-size="14.00">Build von Hand angestossen</text>
</g>
<!-- release&#45;&gt;jenkins_release -->
<g id="edge8" class="edge"><title>release&#45;&gt;jenkins_release</title>
<path fill="none" stroke="black" stroke-dasharray="1,5" d="M473.192,-697.582C474.741,-689.102 476.484,-679.56 478.197,-670.185"/>
<polygon fill="black" stroke="black" points="481.679,-670.601 480.033,-660.135 474.793,-669.343 481.679,-670.601"/>
</g>
<!-- jenkins_snapshot&#45;&gt;repo_properties -->
<g id="edge10" class="edge"><title>jenkins_snapshot&#45;&gt;repo_properties</title>
<path fill="none" stroke="black" stroke-dasharray="1,5" d="M297.438,-583.715C305.915,-574.556 315.123,-564.609 324.117,-554.891"/>
<polygon fill="black" stroke="black" points="326.714,-557.238 330.938,-547.522 321.577,-552.483 326.714,-557.238"/>
</g>
<!-- jenkins_release&#45;&gt;repo_properties -->
<g id="edge12" class="edge"><title>jenkins_release&#45;&gt;repo_properties</title>
<path fill="none" stroke="black" stroke-dasharray="1,5" d="M451.246,-583.715C442.693,-574.556 433.403,-564.609 424.328,-554.891"/>
<polygon fill="black" stroke="black" points="426.83,-552.442 417.446,-547.522 421.714,-557.22 426.83,-552.442"/>
</g>
<!-- install_build_rb -->
<g id="node18" class="node"><title>install_build_rb</title>
<polygon fill="none" stroke="black" points="748,-339.5 2.84217e-13,-339.5 0,-280.5 748,-280.5 748,-339.5"/>
<text text-anchor="end" x="740.5" y="-322.9" font-family="Times Roman,serif" font-size="14.00">https://raw.github.com/elexis/elexis&#45;3&#45;core/release/[known_good_tag]/ch.elexis.core.p2site/install_build.rb</text>
<text text-anchor="start" x="7.5" y="-305.9" font-family="Times Roman,serif" font-size="14.00">1. Kopiert erzeugte p2site nach =/to/p2repo/snapshot/&lt;project&gt;/version_4_[release|snapshot]/&lt;version&gt;</text>
<text text-anchor="start" x="7.5" y="-288.9" font-family="Times Roman,serif" font-size="14.00">2. Erzeugt ein composite repository. Dieses enthält nur Verweise auf abgelegte Versionen.</text>
</g>
<!-- install_build_snapshot&#45;&gt;install_build_rb -->
<g id="edge18" class="edge"><title>install_build_snapshot&#45;&gt;install_build_rb</title>
<path fill="none" stroke="black" stroke-dasharray="1,5" d="M237.573,-375.94C257.417,-366.349 281.408,-354.753 303.702,-343.977"/>
<polygon fill="black" stroke="black" points="305.325,-347.08 312.805,-339.578 302.279,-340.778 305.325,-347.08"/>
</g>
<!-- install_build_release&#45;&gt;install_build_rb -->
<g id="edge20" class="edge"><title>install_build_release&#45;&gt;install_build_rb</title>
<path fill="none" stroke="black" stroke-dasharray="1,5" d="M510.427,-375.94C490.583,-366.349 466.592,-354.753 444.298,-343.977"/>
<polygon fill="black" stroke="black" points="445.721,-340.778 435.195,-339.578 442.675,-347.08 445.721,-340.778"/>
</g>
<!-- snapshot_repository -->
<g id="node21" class="node"><title>snapshot_repository</title>
<polygon fill="none" stroke="black" points="365,-243.5 362,-247.5 341,-247.5 338,-243.5 131,-243.5 131,-184.5 365,-184.5 365,-243.5"/>
<text text-anchor="start" x="139" y="-226.9" font-family="Times Roman,serif" font-size="14.00">Snapshot P2&#45;Repository:</text>
<text text-anchor="start" x="139" y="-209.9" font-family="Times Roman,serif" font-size="14.00">Es werden nur die</text>
<text text-anchor="middle" x="248" y="-192.9" font-family="Times Roman,serif" font-size="14.00">letzten &lt;n&gt; Builds aufbewahrt</text>
</g>
<!-- install_build_rb&#45;&gt;snapshot_repository -->
<g id="edge22" class="edge"><title>install_build_rb&#45;&gt;snapshot_repository</title>
<path fill="none" stroke="black" stroke-dasharray="1,5" d="M328.88,-280.414C315.801,-270.833 301.62,-260.098 288.818,-250.099"/>
<polygon fill="black" stroke="black" points="290.652,-247.089 280.63,-243.654 286.323,-252.589 290.652,-247.089"/>
</g>
<!-- release_repository -->
<g id="node23" class="node"><title>release_repository</title>
<polygon fill="gold" stroke="gold" points="619,-235 616,-239 595,-239 592,-235 383,-235 383,-193 619,-193 619,-235"/>
<text text-anchor="start" x="390.5" y="-218.4" font-family="Times Roman,serif" font-size="14.00">Release P2&#45;Repository:</text>
<text text-anchor="middle" x="501" y="-201.4" font-family="Times Roman,serif" font-size="14.00">Builds werden ewig aufbewahrt</text>
</g>
<!-- install_build_rb&#45;&gt;release_repository -->
<g id="edge24" class="edge"><title>install_build_rb&#45;&gt;release_repository</title>
<path fill="none" stroke="black" stroke-dasharray="1,5" d="M406.853,-280.414C422.85,-267.82 442.198,-253.233 459.221,-240.943"/>
<polygon fill="black" stroke="black" points="461.271,-243.779 467.366,-235.113 457.197,-238.087 461.271,-243.779"/>
</g>
<!-- snapshot_repository&#45;&gt;install_build_rb -->
<!-- bottom -->
<g id="node27" class="node"><title>bottom</title>
<polygon fill="#caff70" stroke="#caff70" points="529,-148 219,-148 219,-72 529,-72 529,-148"/>
<text text-anchor="middle" x="374" y="-131.4" font-family="Times Roman,serif" font-size="14.00">P2&#45;Repositories werden nun</text>
<text text-anchor="middle" x="374" y="-114.4" font-family="Times Roman,serif" font-size="14.00">für Updates von Elexis benutzt</text>
<text text-anchor="middle" x="374" y="-97.4" font-family="Times Roman,serif" font-size="14.00">Wechsel von release &lt;&gt; snapshot möglich</text>
<text text-anchor="middle" x="374" y="-80.4" font-family="Times Roman,serif" font-size="14.00">Davon wird jedoch abgeraten!</text>
</g>
<!-- snapshot_repository&#45;&gt;bottom -->
<g id="edge32" class="edge"><title>snapshot_repository&#45;&gt;bottom</title>
<path fill="none" stroke="black" d="M283.77,-184.476C294.99,-175.215 307.637,-164.776 319.834,-154.709"/>
<polygon fill="black" stroke="black" points="322.28,-157.228 327.764,-148.163 317.824,-151.829 322.28,-157.228"/>
</g>
<!-- release_repository&#45;&gt;install_build_rb -->
<!-- release_repository&#45;&gt;bottom -->
<g id="edge30" class="edge"><title>release_repository&#45;&gt;bottom</title>
<path fill="none" stroke="black" d="M475.3,-192.954C461.783,-181.886 444.674,-167.875 428.383,-154.534"/>
<polygon fill="black" stroke="black" points="430.425,-151.682 420.471,-148.055 425.99,-157.098 430.425,-151.682"/>
</g>
<!-- autor -->
<g id="node30" class="node"><title>autor</title>
<text text-anchor="middle" x="374" y="-21" font-family="Times Roman,serif" font-size="10.00">Erstellt am 23. September 2012 von</text>
<text text-anchor="middle" x="374" y="-9" font-family="Times Roman,serif" font-size="10.00">Niklaus Giger &lt;niklaus.giger@member.fsf.org&gt;</text>
</g>
<!-- bottom&#45;&gt;autor -->
</g>
</svg>
