<?xml version="1.0" encoding="UTF-8" standalone="no"?>
<!DOCTYPE svg PUBLIC "-//W3C//DTD SVG 1.1//EN"
 "http://www.w3.org/Graphics/SVG/1.1/DTD/svg11.dtd">
<!-- Generated by graphviz version 2.26.3 (20100126.1600)
 -->
<!-- Title: Elexis_Release Pages: 1 -->
<svg width="756pt" height="934pt"
 viewBox="0.00 0.00 756.00 934.00" xmlns="http://www.w3.org/2000/svg" xmlns:xlink="http://www.w3.org/1999/xlink">
<g id="graph1" class="graph" transform="scale(1 1) rotate(0) translate(4 930)">
<title>Elexis_Release</title>
<polygon fill="white" stroke="white" points="-4,5 -4,-930 753,-930 753,5 -4,5"/>
<!-- top -->
<g id="node1" class="node"><title>top</title>
<polygon fill="cornsilk" stroke="cornsilk" points="671,-925.5 77,-925.5 77,-888.5 671,-888.5 671,-925.5"/>
<text text-anchor="middle" x="374" y="-899.9" font-family="Times Roman,serif" font-size="24.00">Übersicht, wie eine Elexis 3 Version erstellt wird</text>
</g>
<!-- snapshot -->
<g id="node5" class="node"><title>snapshot</title>
<polyline fill="none" stroke="black" stroke-width="2" points="243,-804 317,-804 "/>
<path fill="none" stroke="black" stroke-width="2" d="M317,-804C323,-804 329,-810 329,-816"/>
<polyline fill="none" stroke="black" stroke-width="2" points="329,-816 329,-828 "/>
<path fill="none" stroke="black" stroke-width="2" d="M329,-828C329,-834 323,-840 317,-840"/>
<polyline fill="none" stroke="black" stroke-width="2" points="317,-840 243,-840 "/>
<path fill="none" stroke="black" stroke-width="2" d="M243,-840C237,-840 231,-834 231,-828"/>
<polyline fill="none" stroke="black" stroke-width="2" points="231,-828 231,-816 "/>
<path fill="none" stroke="black" stroke-width="2" d="M231,-816C231,-810 237,-804 243,-804"/>
<text text-anchor="middle" x="280" y="-816.8" font-family="Times Roman,serif" font-size="18.00">Snapshot</text>
</g>
<!-- top&#45;&gt;snapshot -->
<!-- release -->
<g id="node7" class="node"><title>release</title>
<polygon fill="gold" stroke="gold" points="468,-852 384,-822 468,-792 552,-822 468,-852"/>
<text text-anchor="middle" x="468" y="-816.8" font-family="Times Roman,serif" font-size="18.00">Release</text>
</g>
<!-- top&#45;&gt;release -->
<!-- repo_properties -->
<g id="node2" class="node"><title>repo_properties</title>
<polygon fill="none" stroke="black" points="497,-643.5 251,-643.5 251,-550.5 497,-550.5 497,-643.5"/>
<text text-anchor="middle" x="374" y="-626.9" font-family="Times Roman,serif" font-size="14.00">Aus *.application/repo.properties.</text>
<text text-anchor="middle" x="374" y="-609.9" font-family="Times Roman,serif" font-size="14.00">füllen Maven/Tycho Version,</text>
<text text-anchor="middle" x="374" y="-592.9" font-family="Times Roman,serif" font-size="14.00">Projektnamen, Qualifier,</text>
<text text-anchor="middle" x="374" y="-575.9" font-family="Times Roman,serif" font-size="14.00">Variante=[release|snapshot]&#45;&gt;</text>
<text text-anchor="middle" x="374" y="-558.9" font-family="Times Roman,serif" font-size="14.00">in *.p2site/repo.properties ab</text>
</g>
<!-- application_p2_inf -->
<g id="node3" class="node"><title>application_p2_inf</title>
<polygon fill="none" stroke="black" points="657,-513.5 91,-513.5 91,-454.5 657,-454.5 657,-513.5"/>
<text text-anchor="start" x="98.5" y="-496.9" font-family="Times Roman,serif" font-size="14.00">* Maven erzeugt *.p2site/&lt;Produkt&gt;.p2.inf aus *.Applikation/&lt;Produkt&gt;.p2.inf</text>
<text text-anchor="start" x="98.5" y="-479.9" font-family="Times Roman,serif" font-size="14.00">* &lt;Produkt&gt;.p2.inf definiert die P2&#45;Update&#45;Seiten</text>
<text text-anchor="start" x="98.5" y="-462.9" font-family="Times Roman,serif" font-size="14.00">* Im installierten Produkt sind sie im Ordner p2</text>
</g>
<!-- repo_properties&#45;&gt;application_p2_inf -->
<g id="edge14" class="edge"><title>repo_properties&#45;&gt;application_p2_inf</title>
<path fill="none" stroke="black" stroke-dasharray="1,5" d="M374,-550.386C374,-541.569 374,-532.42 374,-523.835"/>
<polygon fill="black" stroke="black" points="377.5,-523.703 374,-513.703 370.5,-523.703 377.5,-523.703"/>
</g>
<!-- install_build_snapshot -->
<g id="node16" class="node"><title>install_build_snapshot</title>
<polygon fill="none" stroke="black" points="362,-418 20,-418 20,-376 368,-376 368,-412 362,-418"/>
<polyline fill="none" stroke="black" points="362,-418 362,-412 "/>
<polyline fill="none" stroke="black" points="368,-412 362,-412 "/>
<text text-anchor="start" x="27.5" y="-401.4" font-family="Times Roman,serif" font-size="14.00">wget install_build.rb &amp;&amp;\</text>
<text text-anchor="start" x="27.5" y="-384.4" font-family="Times Roman,serif" font-size="14.00">ROOT=/to/p2repo/snapshot ruby install_build.rb</text>
</g>
<!-- application_p2_inf&#45;&gt;install_build_snapshot -->
<g id="edge16" class="edge"><title>application_p2_inf&#45;&gt;install_build_snapshot</title>
<path fill="none" stroke="black" stroke-dasharray="1,5" d="M312.809,-454.424C291.42,-444.087 267.605,-432.576 246.946,-422.591"/>
<polygon fill="black" stroke="black" points="248.223,-419.32 237.696,-418.12 245.176,-425.623 248.223,-419.32"/>
</g>
<!-- install_build_release -->
<g id="node18" class="node"><title>install_build_release</title>
<polygon fill="gold" stroke="gold" points="716,-418 386,-418 386,-376 722,-376 722,-412 716,-418"/>
<polyline fill="none" stroke="gold" points="716,-418 716,-412 "/>
<polyline fill="none" stroke="gold" points="722,-412 716,-412 "/>
<text text-anchor="start" x="394" y="-401.4" font-family="Times Roman,serif" font-size="14.00">wget install_build.rb &amp;&amp;\</text>
<text text-anchor="start" x="394" y="-384.4" font-family="Times Roman,serif" font-size="14.00">ROOT=/to/p2repo/release ruby install_build.rb</text>
</g>
<!-- application_p2_inf&#45;&gt;install_build_release -->
<g id="edge18" class="edge"><title>application_p2_inf&#45;&gt;install_build_release</title>
<path fill="none" stroke="black" stroke-dasharray="1,5" d="M435.191,-454.424C456.58,-444.087 480.395,-432.576 501.054,-422.591"/>
<polygon fill="black" stroke="black" points="502.824,-425.623 510.304,-418.12 499.777,-419.32 502.824,-425.623"/>
</g>
<!-- jenkins_snapshot -->
<g id="node9" class="node"><title>jenkins_snapshot</title>
<polygon fill="none" stroke="black" points="360,-756 176,-756 176,-760 164,-760 164,-680 360,-680 360,-756"/>
<polyline fill="none" stroke="black" points="164,-756 176,-756 "/>
<text text-anchor="middle" x="262" y="-739.4" font-family="Times Roman,serif" font-size="14.00">Jenkins&#45;CI</text>
<text text-anchor="start" x="172" y="-722.4" font-family="Times Roman,serif" font-size="14.00">Konvention für Namen ist</text>
<text text-anchor="start" x="172" y="-705.4" font-family="Times Roman,serif" font-size="14.00">Elexis&#45;major.minor&#45;Project</text>
<text text-anchor="middle" x="262" y="-688.4" font-family="Times Roman,serif" font-size="14.00">zB. Elexis&#45;3.0&#45;Base</text>
</g>
<!-- snapshot&#45;&gt;jenkins_snapshot -->
<g id="edge6" class="edge"><title>snapshot&#45;&gt;jenkins_snapshot</title>
<path fill="none" stroke="black" stroke-dasharray="1,5" d="M276.865,-803.885C275.051,-793.404 272.674,-779.67 270.354,-766.268"/>
<polygon fill="black" stroke="black" points="273.756,-765.401 268.602,-756.144 266.859,-766.595 273.756,-765.401"/>
</g>
<!-- jenkins_release -->
<g id="node11" class="node"><title>jenkins_release</title>
<polygon fill="gold" stroke="gold" points="596,-756 390,-756 390,-760 378,-760 378,-680 596,-680 596,-756"/>
<polyline fill="none" stroke="gold" points="378,-756 390,-756 "/>
<text text-anchor="middle" x="487" y="-739.4" font-family="Times Roman,serif" font-size="14.00">Jenkins&#45;CI</text>
<text text-anchor="middle" x="487" y="-722.4" font-family="Times Roman,serif" font-size="14.00">Separate Projekte</text>
<text text-anchor="middle" x="487" y="-705.4" font-family="Times Roman,serif" font-size="14.00">z.B. Elexis&#45;3.0&#45;Base&#45;Releases</text>
<text text-anchor="middle" x="487" y="-688.4" font-family="Times Roman,serif" font-size="14.00">Build von Hand angestossen</text>
</g>
<!-- release&#45;&gt;jenkins_release -->
<g id="edge8" class="edge"><title>release&#45;&gt;jenkins_release</title>
<path fill="none" stroke="black" stroke-dasharray="1,5" d="M473.192,-793.582C474.741,-785.102 476.484,-775.56 478.197,-766.185"/>
<polygon fill="black" stroke="black" points="481.679,-766.601 480.033,-756.135 474.793,-765.343 481.679,-766.601"/>
</g>
<!-- jenkins_snapshot&#45;&gt;repo_properties -->
<g id="edge10" class="edge"><title>jenkins_snapshot&#45;&gt;repo_properties</title>
<path fill="none" stroke="black" stroke-dasharray="1,5" d="M297.438,-679.715C305.915,-670.556 315.123,-660.609 324.117,-650.891"/>
<polygon fill="black" stroke="black" points="326.714,-653.238 330.938,-643.522 321.577,-648.483 326.714,-653.238"/>
</g>
<!-- jenkins_release&#45;&gt;repo_properties -->
<g id="edge12" class="edge"><title>jenkins_release&#45;&gt;repo_properties</title>
<path fill="none" stroke="black" stroke-dasharray="1,5" d="M451.246,-679.715C442.693,-670.556 433.403,-660.609 424.328,-650.891"/>
<polygon fill="black" stroke="black" points="426.83,-648.442 417.446,-643.522 421.714,-653.22 426.83,-648.442"/>
</g>
<!-- install_build_rb -->
<g id="node20" class="node"><title>install_build_rb</title>
<polygon fill="none" stroke="black" points="748,-339.5 2.84217e-13,-339.5 0,-280.5 748,-280.5 748,-339.5"/>
<text text-anchor="end" x="740.5" y="-322.9" font-family="Times Roman,serif" font-size="14.00">https://raw.github.com/elexis/elexis&#45;3&#45;core/release/Alpha0/ch.elexis.core.p2site/install_build.rb</text>
<text text-anchor="start" x="7.5" y="-305.9" font-family="Times Roman,serif" font-size="14.00">1. Kopiert erzeugte p2site nach =/to/p2repo/snapshot/&lt;project&gt;/version_4_[release|snapshot]/&lt;version&gt;</text>
<text text-anchor="start" x="7.5" y="-288.9" font-family="Times Roman,serif" font-size="14.00">2. Erzeugt ein composite repository. Dieses enthält nur Verweise auf abgelegte Versionen.</text>
</g>
<!-- install_build_snapshot&#45;&gt;install_build_rb -->
<g id="edge20" class="edge"><title>install_build_snapshot&#45;&gt;install_build_rb</title>
<path fill="none" stroke="black" stroke-dasharray="1,5" d="M237.573,-375.94C257.417,-366.349 281.408,-354.753 303.702,-343.977"/>
<polygon fill="black" stroke="black" points="305.325,-347.08 312.805,-339.578 302.279,-340.778 305.325,-347.08"/>
</g>
<!-- install_build_release&#45;&gt;install_build_rb -->
<g id="edge22" class="edge"><title>install_build_release&#45;&gt;install_build_rb</title>
<path fill="none" stroke="black" stroke-dasharray="1,5" d="M510.427,-375.94C490.583,-366.349 466.592,-354.753 444.298,-343.977"/>
<polygon fill="black" stroke="black" points="445.721,-340.778 435.195,-339.578 442.675,-347.08 445.721,-340.778"/>
</g>
<!-- snapshot_repository -->
<g id="node23" class="node"><title>snapshot_repository</title>
<polygon fill="none" stroke="black" points="365,-243.5 362,-247.5 341,-247.5 338,-243.5 131,-243.5 131,-184.5 365,-184.5 365,-243.5"/>
<text text-anchor="start" x="139" y="-226.9" font-family="Times Roman,serif" font-size="14.00">Snapshot P2&#45;Repository:</text>
<text text-anchor="start" x="139" y="-209.9" font-family="Times Roman,serif" font-size="14.00">Es werden nur die</text>
<text text-anchor="middle" x="248" y="-192.9" font-family="Times Roman,serif" font-size="14.00">letzten &lt;n&gt; Builds aufbewahrt</text>
</g>
<!-- install_build_rb&#45;&gt;snapshot_repository -->
<g id="edge24" class="edge"><title>install_build_rb&#45;&gt;snapshot_repository</title>
<path fill="none" stroke="black" stroke-dasharray="1,5" d="M328.88,-280.414C315.801,-270.833 301.62,-260.098 288.818,-250.099"/>
<polygon fill="black" stroke="black" points="290.652,-247.089 280.63,-243.654 286.323,-252.589 290.652,-247.089"/>
</g>
<!-- release_repository -->
<g id="node25" class="node"><title>release_repository</title>
<polygon fill="gold" stroke="gold" points="619,-235 616,-239 595,-239 592,-235 383,-235 383,-193 619,-193 619,-235"/>
<text text-anchor="start" x="390.5" y="-218.4" font-family="Times Roman,serif" font-size="14.00">Release P2&#45;Repository:</text>
<text text-anchor="middle" x="501" y="-201.4" font-family="Times Roman,serif" font-size="14.00">Builds werden ewig aufbewahrt</text>
</g>
<!-- install_build_rb&#45;&gt;release_repository -->
<g id="edge26" class="edge"><title>install_build_rb&#45;&gt;release_repository</title>
<path fill="none" stroke="black" stroke-dasharray="1,5" d="M406.853,-280.414C422.85,-267.82 442.198,-253.233 459.221,-240.943"/>
<polygon fill="black" stroke="black" points="461.271,-243.779 467.366,-235.113 457.197,-238.087 461.271,-243.779"/>
</g>
<!-- snapshot_repository&#45;&gt;install_build_rb -->
<!-- bottom -->
<g id="node29" class="node"><title>bottom</title>
<polygon fill="#caff70" stroke="#caff70" points="529,-148 219,-148 219,-72 529,-72 529,-148"/>
<text text-anchor="middle" x="374" y="-131.4" font-family="Times Roman,serif" font-size="14.00">P2&#45;Repositories werden nun</text>
<text text-anchor="middle" x="374" y="-114.4" font-family="Times Roman,serif" font-size="14.00">für Updates von Elexis benutzt</text>
<text text-anchor="middle" x="374" y="-97.4" font-family="Times Roman,serif" font-size="14.00">Wechsel von release &lt;&gt; snapshot möglich</text>
<text text-anchor="middle" x="374" y="-80.4" font-family="Times Roman,serif" font-size="14.00">Davon wird jedoch abgeraten!</text>
</g>
<!-- snapshot_repository&#45;&gt;bottom -->
<g id="edge34" class="edge"><title>snapshot_repository&#45;&gt;bottom</title>
<path fill="none" stroke="black" d="M283.77,-184.476C294.99,-175.215 307.637,-164.776 319.834,-154.709"/>
<polygon fill="black" stroke="black" points="322.28,-157.228 327.764,-148.163 317.824,-151.829 322.28,-157.228"/>
</g>
<!-- release_repository&#45;&gt;install_build_rb -->
<!-- release_repository&#45;&gt;bottom -->
<g id="edge32" class="edge"><title>release_repository&#45;&gt;bottom</title>
<path fill="none" stroke="black" d="M475.3,-192.954C461.783,-181.886 444.674,-167.875 428.383,-154.534"/>
<polygon fill="black" stroke="black" points="430.425,-151.682 420.471,-148.055 425.99,-157.098 430.425,-151.682"/>
</g>
<!-- autor -->
<g id="node32" class="node"><title>autor</title>
<text text-anchor="middle" x="374" y="-21" font-family="Times Roman,serif" font-size="10.00">Erstellt am 24. September 2012 von</text>
<text text-anchor="middle" x="374" y="-9" font-family="Times Roman,serif" font-size="10.00">Niklaus Giger &lt;niklaus.giger@member.fsf.org&gt;</text>
</g>
<!-- bottom&#45;&gt;autor -->
</g>
</svg>
